<svg aria-hidden="true" style="position: absolute; width: 0; height: 0; overflow: hidden;" version="1.1" xmlns="http://www.w3.org/2000/svg" xmlns:xlink="http://www.w3.org/1999/xlink">
<defs>
<symbol id="icon-stats-bars" viewBox="0 0 32 32">
<path d="M0 26h32v4h-32zM4 18h4v6h-4zM10 10h4v14h-4zM16 16h4v8h-4zM22 4h4v20h-4z"></path>
</symbol>
<symbol id="icon-hash" viewBox="0 0 28 32">
<path d="M28 12v-4h-5.004l1-8h-4l-1 8h-7.998l1-8h-4l-1 8h-6.998v4h6.498l-0.998 8h-5.5v4h5l-1 8h4l1-8h7.998l-1 8h4.002l1-8h7v-4h-6.5l0.996-8h5.504zM17.498 20h-7.998l0.998-8h7.998l-0.998 8z"></path>
</symbol>
<symbol id="icon-dollar" viewBox="0 0 16 28">
<path d="M15.281 18.516c0 3.187-2.281 5.703-5.594 6.25v2.734c0 0.281-0.219 0.5-0.5 0.5h-2.109c-0.266 0-0.5-0.219-0.5-0.5v-2.734c-3.656-0.516-5.656-2.703-5.734-2.797-0.156-0.187-0.172-0.453-0.031-0.641l1.609-2.109c0.078-0.109 0.219-0.172 0.359-0.187s0.281 0.031 0.375 0.141c0.031 0.016 2.219 2.109 4.984 2.109 1.531 0 3.187-0.812 3.187-2.578 0-1.5-1.844-2.234-3.953-3.078-2.812-1.109-6.312-2.516-6.312-6.438 0-2.875 2.25-5.25 5.516-5.875v-2.812c0-0.281 0.234-0.5 0.5-0.5h2.109c0.281 0 0.5 0.219 0.5 0.5v2.75c3.172 0.359 4.859 2.078 4.922 2.141 0.156 0.172 0.187 0.406 0.078 0.594l-1.266 2.281c-0.078 0.141-0.203 0.234-0.359 0.25-0.156 0.031-0.297-0.016-0.422-0.109-0.016-0.016-1.906-1.687-4.25-1.687-1.984 0-3.359 0.984-3.359 2.406 0 1.656 1.906 2.391 4.125 3.25 2.875 1.109 6.125 2.375 6.125 6.141z"></path>
</symbol>
<symbol id="icon-thumb-up" viewBox="0 0 32 32">
<path d="M10 29h13.498c0.829 0 1.502-0.666 1.502-1.5 0-0.828-0.671-1.5-1.502-1.5h-1.498v-1h3.507c0.825 0 1.493-0.666 1.493-1.5 0-0.828-0.664-1.5-1.493-1.5h-2.507v-1h3.507c0.825 0 1.493-0.666 1.493-1.5 0-0.828-0.664-1.5-1.493-1.5h-2.507v-1h3.507c0.825 0 1.493-0.666 1.493-1.5 0-0.828-0.664-1.5-1.493-1.5h-7.207c1.201-5.5 0.852-11-2.3-11-2.871 0-1.063 4.326-2.629 7.301s-4.871 3.699-4.871 3.699h-0.5v15zM4.998 14h4.002v15h-4.002c-1.1 0-1.998-0.892-1.998-1.992v-11.016c0-1.098 0.894-1.992 1.998-1.992zM6 27c0.552 0 1-0.448 1-1s-0.448-1-1-1c-0.552 0-1 0.448-1 1s0.448 1 1 1v0 0z"></path>
</symbol>
<symbol id="icon-coins" viewBox="0 0 32 32">
<path d="M28.5 23h-12.246c0.359-0.619 0.634-1.29 0.816-2h11.43c0.553 0 1 0.447 1 1 0 0.552-0.447 1-1 1zM28.5 20h-11.236c0.041-0.328 0.069-0.661 0.069-1 0-0.34-0.028-0.672-0.069-1h11.236c0.553 0 1 0.447 1 1 0 0.552-0.447 1-1 1zM28.5 17h-11.43c-0.183-0.71-0.457-1.381-0.816-2h12.246c0.553 0 1 0.447 1 1 0 0.552-0.447 1-1 1zM28.5 14h-12.928c-0.65-0.811-1.453-1.493-2.369-2h15.297c0.553 0 1 0.447 1 1 0 0.552-0.447 1-1 1zM28.5 11h-16c-0.553 0-1-0.448-1-1 0-0.553 0.447-1 1-1h16c0.553 0 1 0.447 1 1 0 0.552-0.447 1-1 1zM28.5 8h-16c-0.553 0-1-0.448-1-1 0-0.553 0.447-1 1-1h16c0.553 0 1 0.447 1 1 0 0.552-0.447 1-1 1zM16.5 19c0 3.866-3.135 7-7 7s-7-3.134-7-7 3.134-7 7-7c3.865 0 7 3.134 7 7zM11.978 19.761c-0.101-0.239-0.231-0.447-0.394-0.624s-0.348-0.329-0.556-0.456c-0.208-0.127-0.42-0.24-0.637-0.341-0.217-0.1-0.429-0.194-0.637-0.284-0.208-0.089-0.395-0.185-0.559-0.287s-0.296-0.219-0.394-0.35-0.147-0.286-0.147-0.466c0-0.12 0.022-0.234 0.065-0.342 0.044-0.107 0.11-0.2 0.2-0.277 0.089-0.076 0.201-0.137 0.334-0.18 0.133-0.044 0.29-0.065 0.469-0.065 0.229 0 0.439 0.027 0.631 0.083 0.191 0.057 0.36 0.118 0.506 0.187 0.146 0.068 0.269 0.131 0.369 0.189s0.173 0.086 0.219 0.086 0.082-0.012 0.109-0.037c0.026-0.025 0.048-0.064 0.062-0.119 0.015-0.054 0.024-0.123 0.031-0.206 0.006-0.084 0.009-0.187 0.009-0.308 0-0.108-0.002-0.199-0.006-0.271s-0.012-0.134-0.021-0.182c-0.011-0.048-0.023-0.087-0.037-0.116-0.016-0.029-0.043-0.064-0.085-0.105s-0.127-0.094-0.256-0.155c-0.129-0.062-0.277-0.118-0.443-0.167-0.167-0.050-0.346-0.089-0.537-0.118-0.039-0.006-0.079-0.004-0.118-0.009v-1.034h-0.984v1.034c-0.181 0.024-0.356 0.060-0.526 0.109-0.331 0.096-0.618 0.24-0.862 0.434s-0.438 0.438-0.581 0.73c-0.144 0.294-0.215 0.634-0.215 1.021 0 0.337 0.050 0.627 0.149 0.868s0.23 0.451 0.391 0.628 0.342 0.328 0.546 0.455c0.204 0.128 0.415 0.241 0.631 0.341s0.427 0.194 0.631 0.284 0.386 0.186 0.546 0.287c0.161 0.103 0.291 0.219 0.391 0.35 0.1 0.132 0.15 0.289 0.15 0.472 0 0.159-0.029 0.303-0.087 0.433s-0.143 0.237-0.253 0.325-0.244 0.155-0.402 0.203c-0.159 0.048-0.337 0.072-0.538 0.072-0.304 0-0.572-0.034-0.803-0.103s-0.43-0.145-0.597-0.229c-0.167-0.083-0.303-0.158-0.409-0.228-0.106-0.068-0.188-0.103-0.247-0.103-0.042 0-0.079 0.012-0.109 0.034-0.032 0.023-0.057 0.062-0.075 0.116-0.019 0.055-0.032 0.125-0.041 0.213s-0.013 0.196-0.013 0.325c0 0.192 0.012 0.339 0.034 0.441 0.023 0.103 0.062 0.181 0.116 0.234s0.142 0.115 0.265 0.186 0.276 0.137 0.459 0.201c0.183 0.063 0.395 0.118 0.634 0.164 0.239 0.045 0.499 0.067 0.778 0.067 0.012 0 0.023-0.002 0.036-0.002v0.963h0.983v-1.092c0.047-0.012 0.097-0.018 0.143-0.031 0.362-0.108 0.679-0.27 0.95-0.484s0.485-0.481 0.644-0.802c0.158-0.321 0.236-0.693 0.236-1.118 0.001-0.323-0.049-0.604-0.148-0.844zM15.572 24h12.928c0.553 0 1 0.447 1 1 0 0.552-0.447 1-1 1h-15.297c0.916-0.507 1.719-1.189 2.369-2z"></path>
</symbol>
<symbol id="icon-search" viewBox="0 0 32 32">
<path d="M31.008 27.231l-7.58-6.447c-0.784-0.705-1.622-1.029-2.299-0.998 1.789-2.096 2.87-4.815 2.87-7.787 0-6.627-5.373-12-12-12s-12 5.373-12 12 5.373 12 12 12c2.972 0 5.691-1.081 7.787-2.87-0.031 0.677 0.293 1.515 0.998 2.299l6.447 7.58c1.104 1.226 2.907 1.33 4.007 0.23s0.997-2.903-0.23-4.007zM12 20c-4.418 0-8-3.582-8-8s3.582-8 8-8 8 3.582 8 8-3.582 8-8 8z"></path>
</symbol>
</defs>
</svg>
